<?xml version="1.0" encoding="UTF-8" standalone="no"?>
<svg
   viewBox="0 0 24 24"
   version="1.1"
   id="svg1"
   sodipodi:docname="cards.svg"
   inkscape:version="1.4 (e7c3feb100, 2024-10-09)"
   xmlns:inkscape="http://www.inkscape.org/namespaces/inkscape"
   xmlns:sodipodi="http://sodipodi.sourceforge.net/DTD/sodipodi-0.dtd"
   xmlns="http://www.w3.org/2000/svg"
   xmlns:svg="http://www.w3.org/2000/svg">
  <defs
     id="defs1" />
  <sodipodi:namedview
     id="namedview1"
     pagecolor="#505050"
     bordercolor="#eeeeee"
     borderopacity="1"
     inkscape:showpageshadow="0"
     inkscape:pageopacity="0"
     inkscape:pagecheckerboard="0"
     inkscape:deskcolor="#505050"
     inkscape:zoom="34.083333"
     inkscape:cx="12.249389"
     inkscape:cy="12"
     inkscape:window-width="1920"
     inkscape:window-height="1016"
     inkscape:window-x="0"
     inkscape:window-y="28"
     inkscape:window-maximized="1"
     inkscape:current-layer="layer1" />
  <path
     d="M 21.47,4.35 20.13,3.79 v 9.03 L 22.56,6.96 C 22.97,5.94 22.5,4.77 21.47,4.35 M 1.97,8.05 6.93,20 c 0.31,0.77 1.04,1.24 1.81,1.26 0.26,0 0.53,-0.05 0.79,-0.16 L 16.9,18.05 C 17.65,17.74 18.11,17 18.13,16.26 18.14,16 18.09,15.71 18,15.45 L 13,3.5 C 12.71,2.73 11.97,2.26 11.19,2.25 10.93,2.25 10.67,2.31 10.42,2.4 L 3.06,5.45 C 2.04,5.87 1.55,7.04 1.97,8.05 m 16.15,-3.8 c 0,-1.1 -0.9,-2 -2,-2 h -1.45 l 3.45,8.34"
     id="path1"
     sodipodi:nodetypes="ccccccccccccccccccscc"
     style="display:inline;fill:#ffe013;fill-opacity:1;fill-rule:nonzero" />
  <path
     d="m 18.12,4.25 c 0,-1.1 -0.9,-2 -2,-2 h -1.45 l 3.45,8.34"
     id="path3"
     sodipodi:nodetypes="cscc"
     style="display:inline;fill:#ff1f1f;fill-opacity:1" />
  <path
     d="M 21.47,4.35 20.13,3.79 v 9.03 L 22.56,6.96 C 22.97,5.94 22.5,4.77 21.47,4.35"
     id="path2"
     sodipodi:nodetypes="ccccc"
     style="fill:#0058db;fill-opacity:1;fill-rule:nonzero" />
  <g
     inkscape:groupmode="layer"
     id="layer1"
     inkscape:label="Layer 1" />
</svg>
